# xmcd
#
# Track frame offsets:
#	150
#	24450
#	47617
#
# Disc length: 957 seconds
#
# Revision: 1
# Processed by: cddbd v1.5.1PL0 Copyright (c) Steve Scherf et al.
# Submitted via: CDex 1.50Beta5
#
DISCID=1a03bb03
DTITLE=THE ALFEE - Promised Love
DYEAR=1900
DGENRE=Pop
TTITLE0=Promised Love
TTITLE1=Someday
TTITLE2=Promised Love(カラオケ)
EXTD=
EXTT0=
EXTT1=
EXTT2=
PLAYORDER=
